# Blender 4.2.0
# www.blender.org
mtllib chessboard.mtl
o CHESSBOARD
v 4.349265 -0.418507 -4.350000
v 4.349316 -0.010623 -4.350000
v 4.349319 -0.010624 4.349997
v 4.349267 -0.418508 4.349997
v -4.350625 -0.010839 4.350000
v -4.350677 -0.418452 4.350000
v -4.350627 -0.010837 -4.349997
v -4.350681 -0.418451 -4.349997
vn -0.0000 1.0000 -0.0000
vn -0.0000 -0.0000 1.0000
vn -0.0000 -0.0000 -1.0000
vn -0.0000 -1.0000 -0.0000
vn 1.0000 -0.0001 -0.0000
vn -1.0000 0.0001 -0.0000
vt 0.983147 0.006761
vt 0.491205 0.498837
vt 0.491107 0.006801
vt 0.420241 0.124986
vt 0.022482 0.875016
vt 0.417867 0.871251
vt 0.422644 0.376308
vt 0.020094 0.623698
vt 0.026940 0.374984
vt 0.983258 0.996299
vt 0.491167 0.504095
vt 0.983243 0.504221
vt 0.416061 0.625026
vt 0.025119 0.128762
vt 0.983324 0.498866
vt 0.491181 0.996170
s 1
g CHESSBOARD_BOARD_TEXTURE
usemtl BOARD_TEXTURE
f 2/1/1 5/2/1 3/3/1
f 5/4/2 4/5/2 3/6/2
f 7/7/3 1/8/3 8/9/3
f 6/10/4 1/11/4 4/12/4
f 2/13/5 4/5/5 1/8/5
f 5/4/6 8/9/6 6/14/6
f 2/1/1 7/15/1 5/2/1
f 5/4/2 6/14/2 4/5/2
f 7/7/3 2/13/3 1/8/3
f 6/10/4 8/16/4 1/11/4
f 2/13/5 3/6/5 4/5/5
f 5/4/6 7/7/6 8/9/6
